<svg width="1500" height="532" viewBox="0 0 1500 532" fill="none" xmlns="http://www.w3.org/2000/svg">
<path d="M1366.33 145L1500 145L1437.76 267.449L1304.08 267.449L1243.09 385.924L1106.07 385.924L1051.02 280.714L997.248 385.924L860.227 385.924L806.122 280.714L677.606 531.732L540.638 531.732L614.39 385.924L560.204 280.714L505.574 385.924L368.553 385.924L314.286 280.714L260.218 385.924L122.449 385.924L0 145L137.755 145L191.837 252.143L245.918 145L382.653 145L437.064 252.413L491.837 145L628.571 145L682.653 252.143L736.735 145L874.49 145L928.571 252.143L983.673 145L1120.41 145L1178.57 260.306L1366.33 145Z" fill="#5E7ED0"/>
<path opacity="0.15" d="M1500 145H1366.33L1304.08 267.449L1437.76 267.449L1500 145Z" fill="black"/>
<path opacity="0.15" d="M1120.41 145L1051.02 280.714L1106.12 385.816L1165.75 268.897L1178.57 260.306L1120.41 145Z" fill="black"/>
<path opacity="0.15" d="M874.49 145L806.123 280.714L860.204 385.816L928.572 252.143L874.49 145Z" fill="black"/>
<path opacity="0.15" d="M628.571 145L560.204 280.714L614.286 385.816L682.653 252.143L628.571 145Z" fill="black"/>
<path opacity="0.15" d="M382.652 145L314.285 280.714L368.367 385.816L437.244 252.653L382.652 145Z" fill="black"/>
<path opacity="0.15" d="M0 145L122.449 385.816L191.837 252.653L137.755 145H0Z" fill="black"/>
<g opacity="0.2">
<path d="M1500 145H1366.33L1304.08 267.449L1437.76 267.449L1500 145Z" fill="url(#paint0_linear)"/>
<path d="M1120.41 145L1051.02 280.714L1106.12 385.816L1165.75 268.897L1178.57 260.306L1120.41 145Z" fill="url(#paint1_linear)"/>
<path d="M874.49 145L806.123 280.714L860.204 385.816L928.572 252.143L874.49 145Z" fill="url(#paint2_linear)"/>
<path d="M628.571 145L560.204 280.714L614.286 385.816L682.653 252.143L628.571 145Z" fill="url(#paint3_linear)"/>
<path d="M382.652 145L314.285 280.714L368.367 385.816L437.244 252.653L382.652 145Z" fill="url(#paint4_linear)"/>
<path d="M0 145L122.449 385.816L191.837 252.653L137.755 145H0Z" fill="url(#paint5_linear)"/>
</g>
<defs>
<linearGradient id="paint0_linear" x1="1340.31" y1="202.143" x2="1383.67" y2="224.592" gradientUnits="userSpaceOnUse">
<stop/>
<stop offset="1" stop-opacity="0"/>
</linearGradient>
<linearGradient id="paint1_linear" x1="1080.61" y1="222.041" x2="1170.92" y2="273.571" gradientUnits="userSpaceOnUse">
<stop/>
<stop offset="0.520833" stop-opacity="0"/>
<stop offset="1"/>
</linearGradient>
<linearGradient id="paint2_linear" x1="840.306" y1="210.816" x2="928.572" y2="254.184" gradientUnits="userSpaceOnUse">
<stop/>
<stop offset="0.578125" stop-opacity="0"/>
<stop offset="1"/>
</linearGradient>
<linearGradient id="paint3_linear" x1="601.02" y1="206.735" x2="682.653" y2="251.633" gradientUnits="userSpaceOnUse">
<stop/>
<stop offset="0.510417" stop-opacity="0"/>
<stop offset="1"/>
</linearGradient>
<linearGradient id="paint4_linear" x1="339.795" y1="236.326" x2="421.428" y2="281.224" gradientUnits="userSpaceOnUse">
<stop/>
<stop offset="0.552083" stop-opacity="0"/>
<stop offset="1"/>
</linearGradient>
<linearGradient id="paint5_linear" x1="138.775" y1="222.041" x2="191.837" y2="252.143" gradientUnits="userSpaceOnUse">
<stop stop-opacity="0"/>
<stop offset="1"/>
</linearGradient>
</defs>
</svg>
